<svg width="1275" height="1224" viewBox="0 0 1275 1224" fill="none" xmlns="http://www.w3.org/2000/svg">
<path d="M518.62 1057.59C596.726 1060.06 662.434 1037.28 715.917 991.102C773.458 941.423 828.157 889.5 876.914 833.483C921.709 782.017 948.624 724.45 957.04 660.88C964.048 607.942 960.287 555.806 940.458 505.028C914.017 437.315 865.3 383.455 794.963 343.433C791.692 341.572 787.812 340.306 785.739 337.483C785.292 335.587 786.715 334.769 787.904 333.916C801.801 323.944 812.118 311.693 819.626 297.836C822.46 292.605 825.246 292.549 830.512 295.431C863.81 313.655 892.356 336.231 917.694 361.79C964.168 408.669 994.763 461.996 1009.8 521.636C1020.39 563.596 1021.41 605.872 1015.72 648.364C1008.51 702.302 990.612 753.466 959.918 801.416C936.433 838.105 906.197 870.674 874.011 902.08C830.363 944.671 786.424 987.053 742.815 1029.67C701.817 1069.74 661.029 1109.96 620.264 1150.2C601.528 1168.69 583.074 1187.38 564.477 1205.97C562.066 1208.38 559.67 1210.81 557.09 1213.09C541.094 1227.24 518.001 1226.99 502.979 1211.98C449.389 1158.43 395.266 1105.26 340.679 1052.43C298.027 1011.15 254.83 970.27 212.212 928.967C179.785 897.541 146.321 866.868 119.178 831.772C80.8027 782.153 56.6267 728.192 44.9377 670.045C36.5361 628.251 35.3856 586.297 43.5365 544.528C63.3799 442.843 121.636 360.591 221.832 299.98C227.513 296.543 230.41 296.154 233.482 302.367C239.721 314.985 249.57 325.635 261.544 334.898C263.443 336.366 266.067 337.426 266.553 340.731C259.474 345.209 252.02 349.846 244.664 354.59C176.816 398.344 132.487 455.476 109.836 524.312C93.559 573.775 92.3877 624.02 102.47 674.648C110.125 713.086 123.159 749.904 144.748 784.488C163.37 814.317 186.628 841.48 212.412 867.173C252.968 907.587 293.351 948.159 336.598 986.568C373.526 1019.37 418.707 1041.07 471.047 1051.86C486.394 1055.03 502.126 1056.41 518.62 1057.59Z" fill="#F57C00"/>
<path d="M375.358 970.123C369.646 954.885 370.296 939.101 364.1 924.411C360.541 937.596 363.394 950.43 366.825 963.115C370.275 975.872 377.076 987.602 385.248 998.973C380.95 1000.33 379.245 998.066 377.319 996.839C359.231 985.314 343.226 971.92 328.958 957.114C320.75 948.598 321.035 937.613 318.65 927.493C316.77 919.518 315.331 911.446 314.251 903.365C313.032 894.24 306.634 888.649 297.601 884.732C290.412 881.614 282.732 879.595 274.789 878.27C268.992 877.304 263.265 876.124 258.089 873.539C247.751 868.376 243.558 859.731 247.244 851.051C250.363 843.704 261.104 838.613 271.643 840.008C279.84 841.094 287.953 842.694 296.039 844.297C301.803 845.44 306.37 847.695 310.508 851.907C320.9 862.485 336.355 866.189 351.118 870.19C388.609 880.349 427.41 884.326 466.479 887.258C496.747 889.53 527.054 890.721 557.339 889.591C608.011 887.699 658.488 883.968 707.383 871.34C717.432 868.745 727.05 865.326 736.144 860.865C740.114 858.918 744.306 856.957 746.806 853.743C757.702 839.737 775.455 841.211 791.467 840.224C801.254 839.621 808.786 846.277 810.67 853.344C812.719 861.026 808.898 868.117 799.997 872.934C796.375 874.894 792.536 876.403 788.239 877.168C783.525 878.007 778.949 879.387 774.247 880.285C753.668 884.214 742.02 894.124 741.675 912.794C741.525 920.873 739.022 928.901 738.033 936.991C735.893 954.496 721.361 965.363 708.066 976.738C703.57 980.584 699.556 985.319 691.138 988.251C706.774 959.162 708.501 929.588 710.357 899.841C694.721 900.062 692.338 902.28 691.52 913.715C690.341 930.184 688.862 946.615 684.504 962.819C674.934 998.402 650.105 1021.23 608.513 1032.32C535.75 1051.72 467.217 1044.54 402.086 1011.64C393.867 1007.49 389.936 1000.27 385.658 993.525C381.092 986.322 378.209 978.502 375.358 970.123ZM283.138 856.33C290.925 858.579 298.15 862.314 306.897 862.116C300.109 857.271 291.98 855.653 283.138 856.33ZM758.527 861.491C763.632 859.753 768.738 858.015 773.843 856.277C765.728 856.457 757.427 856.04 750.169 861.775C752.304 862.425 753.031 862.87 753.675 862.795C754.976 862.646 756.232 862.214 758.527 861.491Z" fill="#FF6501"/>
<path d="M778.005 179.665C838.945 229.159 818.921 313.392 740.282 339.317C732.615 341.844 730.417 345.057 730.605 351.606C731.124 369.739 730.893 387.89 730.745 406.033C730.62 421.287 720.941 426.223 704.55 419.295C642.293 392.98 576.104 382.391 506.869 386.447C451.634 389.683 398.73 401.494 348.795 421.874C331.541 428.916 321.975 423.998 321.95 407.899C321.923 390.203 321.669 372.503 322.112 354.815C322.249 349.326 319.837 347.082 313.936 345.197C266.121 329.915 235.584 294.638 235.97 252.29C236.299 216.256 256.179 188.117 293.252 169.602C322.131 155.179 353.558 150.303 386.746 157.414C391.996 158.539 394.573 157.317 396.873 153.482C424.267 107.801 490.392 80.2565 554.227 88.0414C604.868 94.217 642.645 115.984 666.693 153.89C668.931 157.417 671.017 158.016 675.47 157.138C714.127 149.512 748.016 157.569 778.005 179.665ZM277.444 288.226C296.267 316.095 327.074 327.173 363.463 329.893C362.58 332.49 360.868 333.006 359.423 333.218C351.339 334.405 349.862 338.701 350.068 344.872C350.523 358.524 350.157 372.194 350.266 385.855C350.285 388.193 349.322 390.81 352.217 393.162C467.298 352.597 583.286 346.19 699.442 389.4C702.229 386.453 701.362 383.89 701.377 381.515C701.484 364.942 701.604 348.367 701.409 331.794C701.352 326.935 703.409 324.4 709.239 323.399C714.453 322.505 719.584 321.037 724.546 319.389C763.976 306.294 790.3 273.78 780.599 235.399C769.418 191.159 713.308 167.877 661.945 185.026C658.845 186.061 656.034 188.221 652.304 187.434C634.341 138.25 594.213 110.774 533.481 110.272C470.575 109.752 428.34 137.325 408.87 188.333C361.97 172.305 319.39 175.773 285.839 208.832C261.887 232.432 260.3 259.612 277.444 288.226Z" fill="#01491E"/>
<path d="M508.014 643.006C488.394 642.79 471.335 638.052 456.297 628.479C448.192 623.319 448.239 622.504 455.456 616.9C459.988 613.382 464.73 610.014 468.877 606.197C473.021 602.383 476.521 601.515 481.755 605.102C492.092 612.186 504.542 612.685 517.024 611.217C527.25 610.014 534.671 602.412 534.913 593.713C535.139 585.615 534.864 577.508 535.058 569.409C535.304 559.135 543.129 552.135 554.115 552.086C565.189 552.037 572.542 558.79 572.755 569.471C572.916 577.57 572.651 585.676 572.825 593.775C573.016 602.701 578.671 608.905 588.776 610.912C596.696 612.485 604.832 611.57 612.876 611.462C616.406 611.414 617.224 609.338 617.247 606.829C617.275 603.679 617.377 600.529 617.382 597.378C617.439 562.045 617.406 526.711 617.579 491.378C617.629 481.241 624.452 474.631 634.715 474.048C644.987 473.464 653.252 480.076 654.589 490.068C654.887 492.296 654.836 494.562 654.837 496.811C654.844 512.564 654.823 528.318 654.811 544.072C654.809 546.927 654.811 549.782 654.811 554.315C667.345 543.987 680.255 537.69 695.835 535.317C731.623 529.867 766.433 553.68 766.625 584.056C766.649 587.878 766.803 591.736 766.273 595.517C765.077 604.05 767.226 607.955 775.195 610.559C783.599 613.304 792.417 611.247 797.524 605.41C801 601.436 802.171 596.874 802.584 592.098C804.754 566.985 829.034 549.788 861.091 550.659C888.231 551.397 910.573 571.656 911.985 594.946C913.543 620.636 892.192 640.634 867.51 644.15C849.14 646.767 832.853 642.98 819.352 631.541C814.235 634.038 809.639 636.733 804.618 638.651C784.565 646.311 765.8 643.882 748.819 632.485C744.967 629.899 742.563 629.61 738.515 631.957C725.292 639.622 710.179 642.928 694.355 642.89C668.045 642.825 641.711 644.009 615.414 642.168C611.998 641.929 608.491 642.792 605.014 642.952C585.673 643.838 568.251 639.982 554.157 627.676C541.446 638.569 526.15 643.043 508.014 643.006ZM723.351 602.366C731.901 592.156 732.671 581.181 725.417 572.925C718.839 565.439 705.127 562.439 692.389 567.064C672.263 574.372 660.873 588.146 655.34 605.538C653.965 609.859 656.453 611.743 661.745 611.684C673.837 611.549 685.932 611.575 698.025 611.603C707.642 611.625 715.93 609.055 723.351 602.366ZM842.448 609.372C850.573 615.281 860.566 616.189 868.059 611.7C875.012 607.534 878.194 597.986 874.884 591.219C871.235 583.761 863.229 579.96 853.632 581.129C839.261 582.88 833.412 596.318 842.448 609.372Z" fill="#01491E"/>
<path d="M381.409 642.171C359.069 645.507 337.197 644.454 315.423 644.039C301.482 643.773 289.639 638.284 279.631 629.414C258.07 648.146 231.203 645.987 205.002 642.891C181.318 640.093 164.819 624.637 164.337 604.828C163.406 566.637 163.746 528.415 164.238 490.212C164.408 476.939 179.664 469.894 191.879 476.566C198.1 479.965 200.216 484.909 200.193 491.008C200.062 525.171 200.122 559.334 200.146 593.497C200.156 608.165 206.372 613.508 223.799 613.617C230.495 613.659 237.224 614.259 243.857 612.538C254.896 609.674 260.43 603.92 260.519 594.299C260.641 581.039 260.36 567.775 260.657 554.519C260.837 546.485 266.785 540.76 275.733 539.022C282.741 537.66 291.276 540.737 295.177 546.208C297.877 549.995 298.349 554.263 298.358 558.568C298.382 570.255 298.298 581.943 298.421 593.629C298.543 605.265 305.056 612.394 318.677 613.21C339.89 614.481 361.312 614.46 382.151 610.437C405.118 606.002 423.597 595.016 439.447 580.655C423.27 568.394 396.537 560.928 381.479 571.85C372.651 578.254 362.848 576.931 356.415 570.455C350.339 564.34 351.047 553.399 358.861 547.744C378.415 533.596 400.79 531.106 424.538 538.779C438.565 543.311 452.024 549.061 465.76 554.224C470.209 555.896 474.88 556.78 479.77 557.197C489.052 557.99 494.478 562.207 495.779 569.175C497.489 578.334 493.909 587.282 485.754 589.357C475.769 591.897 469.524 597.805 462.729 603.462C441.423 621.198 417.643 635.48 387.637 641.135C385.799 641.481 383.935 641.731 381.409 642.171Z" fill="#01491E"/>
<path d="M610.088 832.128C615.719 833.236 620.962 833.679 625.545 835.374C636.048 839.256 642.657 835.534 648.604 828.649C664.477 810.273 680.565 792.028 696.6 773.751C723.27 743.351 748.798 712.249 776.466 682.463C784.902 673.382 795.206 666.767 809.802 667.749C827.91 668.969 838.813 683.546 833.535 698.868C831.322 705.294 826.968 710.496 821.26 715.17C782.911 746.569 744.683 778.071 706.443 809.563C704.016 811.561 701.174 813.376 700.297 816.443C704.055 820.042 709.492 820.311 714.019 822.031C719.162 823.985 724.357 825.827 728.864 828.678C737.871 834.377 737.973 841.017 729.075 846.925C722.701 851.159 715.228 853.704 707.576 855.856C674.314 865.209 639.813 869.028 605.087 871.577C576.258 873.693 547.354 874.951 518.392 874.244C509.34 874.023 500.304 873.351 491.216 872.884C495.723 848.219 558.699 826.718 610.088 832.128Z" fill="#01491E"/>
<path d="M514.374 801.066C517.819 806.313 521.85 810.434 527.623 813.148C532.893 815.626 538.31 817.891 543.511 820.183C542.936 822.978 540.483 823.172 538.6 823.728C509.877 832.218 486.065 845.749 471.343 868.576C469.348 871.669 466.399 872.308 462.628 871.97C422.065 868.33 381.653 864.056 342.912 852.67C337.313 851.025 331.952 849.001 327.22 845.996C318.613 840.531 318.368 834.725 326.926 829.055C336.527 822.695 348.029 819.366 359.579 816.447C407.42 804.357 456.546 799.537 506.418 799.174C509.054 799.155 511.856 798.76 514.374 801.066Z" fill="#F57C00"/>
<path d="M576.141 754.081C596.889 752.818 608.42 765.99 601.037 781.9C597.15 790.274 590.359 797.039 582.55 803.049C577.194 807.171 571.604 811.079 566.07 815.035C563.707 816.725 561.065 818.053 558.091 816.087C544.112 806.842 529.909 797.717 522.676 783.361C517.521 773.131 519.55 763.537 527.757 757.882C536.45 751.892 546.256 752.358 558.009 759.292C559.075 759.922 560.243 760.43 561.465 761.045C566.024 758.334 570.011 755.16 576.141 754.081Z" fill="#FF6501"/>
<path d="M482.82 724.91C484.862 716.55 482.396 709.795 477.515 703.071C470.007 692.726 470.621 684.831 478.151 678.41C498.073 691.588 508.861 717.742 501.18 734.23C499.398 738.054 497.182 741.693 493.939 744.718C484.208 753.791 482.838 763.858 488.713 774.927C489.348 776.124 490.22 777.381 489.411 778.993C486.14 781.39 483.618 778.993 481.22 777.576C467.04 769.201 463.405 753.175 472.647 740.099C476.068 735.259 480.278 730.827 482.82 724.91Z" fill="#FF6501"/>
<path d="M432.864 719.157C444.837 735.309 444.287 745.134 430.862 759.353C425.647 764.876 423.63 770.855 426.255 777.913C427.052 780.056 429.271 782.261 427.283 784.793C417.456 784.321 408.67 772.706 410.535 762.55C411.224 758.798 412.528 755.109 415.331 752.152C424.777 742.187 425.802 732.249 417.16 721.218C412.257 714.96 413.762 708.487 419.76 703.512C424.044 708.627 428.288 713.695 432.864 719.157Z" fill="#FF6501"/>
<path d="M404.249 491.377C413.802 481.383 425.733 479.669 435.616 486.464C444.93 492.867 446.593 503.605 439.577 512.053C433.351 519.551 421.014 521.663 411.419 516.874C401.746 512.045 398.87 502.431 404.249 491.377Z" fill="#FF6501"/>
<path d="M251.35 496.376C256.811 484.602 267.31 479.855 278.366 483.674C289.785 487.618 294.945 498.27 290.291 508.295C286.407 516.662 275.676 521.191 265.412 518.795C255.168 516.403 249.183 507.169 251.35 496.376Z" fill="#FF6501"/>
<path d="M608.302 801.541C621.818 802.833 634.658 804.059 648.101 806.697C645.13 812.549 639.647 815.974 635.15 819.899C634.049 820.861 632.131 820.776 630.528 820.343C616.141 816.456 601.247 814.588 585.845 814.38C589.006 806.642 598.494 801.22 608.302 801.541Z" fill="#F57C00"/>
<path d="M570.566 673.454C565.039 679.542 558.498 681.215 551.064 678.009C544.788 675.304 541.518 670.455 542.411 664.307C543.339 657.916 547.85 653.842 555.151 652.44C560.899 651.337 565.842 653.08 569.492 656.857C574.279 661.811 574.689 667.339 570.566 673.454Z" fill="#FF6501"/>
</svg>
